HIERARCHY
ROOT Hips
{
	OFFSET	0.00	0.00	0.00
	CHANNELS 6 Xposition Yposition Zposition Zrotation Xrotation Yrotation
	JOINT LeftUpLeg
	{
		OFFSET	 0.126116	-0.014019	-0.065224
		CHANNELS 3 Zrotation Xrotation Yrotation
		JOINT LeftLeg
		{
			OFFSET	 0.000000	 0.000000	 0.569914
			CHANNELS 3 Zrotation Xrotation Yrotation
			JOINT LeftFoot
			{
				OFFSET	 0.000000	 0.000000	 0.544423
				CHANNELS 3 Zrotation Xrotation Yrotation
				JOINT LeftToeBase
				{
					OFFSET	 0.000000	 0.000000	 0.207117
					CHANNELS 3 Zrotation Xrotation Yrotation
					End Site
					{
						OFFSET	 0.000000	 0.000000	 0.207117
					}
				}
			}
		}
	}
	JOINT RightUpLeg
	{
		OFFSET	-0.124023	-0.008373	-0.065224
		CHANNELS 3 Zrotation Xrotation Yrotation
		JOINT RightLeg
		{
			OFFSET	 0.000000	 0.000000	 0.570047
			CHANNELS 3 Zrotation Xrotation Yrotation
			JOINT RightFoot
			{
				OFFSET	 0.000000	 0.000000	 0.544354
				CHANNELS 3 Zrotation Xrotation Yrotation
				JOINT RightToeBase
				{
					OFFSET	 0.000000	 0.000000	 0.207540
					CHANNELS 3 Zrotation Xrotation Yrotation
					End Site
					{
						OFFSET	 0.000000	 0.000000	 0.207540
					}
				}
			}
		}
	}
	JOINT Spine
	{
		OFFSET	 0.000184	-0.007763	 0.117403
		CHANNELS 3 Zrotation Xrotation Yrotation
		JOINT Spine1
		{
			OFFSET	 0.000000	 0.000000	 0.137269
			CHANNELS 3 Zrotation Xrotation Yrotation
			JOINT Spine2
			{
				OFFSET	 0.000000	 0.000000	 0.156879
				CHANNELS 3 Zrotation Xrotation Yrotation
				JOINT LeftShoulder
				{
					OFFSET	 0.080501	-0.002496	 0.160144
					CHANNELS 3 Zrotation Xrotation Yrotation
					JOINT LeftArm
					{
						OFFSET	 0.000000	 0.000000	 0.164363
						CHANNELS 3 Zrotation Xrotation Yrotation
						JOINT LeftForeArm
						{
							OFFSET	 0.000000	 0.000000	 0.364576
							CHANNELS 3 Zrotation Xrotation Yrotation
							JOINT LeftHand
							{
								OFFSET	 0.000000	 0.000000	 0.360812
								CHANNELS 3 Zrotation Xrotation Yrotation
								JOINT LeftHandIndex1
								{
									OFFSET	 0.000000	 0.000000	 0.086006
									CHANNELS 3 Zrotation Xrotation Yrotation
									JOINT LeftHandIndex2
									{
										OFFSET	 0.000000	 0.000000	 0.047237
										CHANNELS 3 Zrotation Xrotation Yrotation
										JOINT LeftHandIndex3
										{
											OFFSET	-0.004284	-0.000551	 0.038165
											CHANNELS 3 Zrotation Xrotation Yrotation
											End Site
											{
												OFFSET	-0.004284	-0.000551	 0.038165
											}
										}
									}
								}
							}
						}
					}
				}
				JOINT Neck
				{
					OFFSET	 0.000000	 0.000000	 0.176489
					CHANNELS 3 Zrotation Xrotation Yrotation
					JOINT Head
					{
						OFFSET	 0.000000	-0.001747	 0.077940
						CHANNELS 3 Zrotation Xrotation Yrotation
						End Site
						{
							OFFSET	 0.000000	-0.001747	 0.077940
						}
					}
				}
				JOINT RightShoulder
				{
					OFFSET	-0.080363	 0.000306	 0.159706
					CHANNELS 3 Zrotation Xrotation Yrotation
					JOINT RightArm
					{
						OFFSET	 0.000000	 0.000000	 0.164196
						CHANNELS 3 Zrotation Xrotation Yrotation
						JOINT RightForeArm
						{
							OFFSET	 0.000000	 0.000000	 0.365611
							CHANNELS 3 Zrotation Xrotation Yrotation
							JOINT RightHand
							{
								OFFSET	 0.000000	 0.000000	 0.360648
								CHANNELS 3 Zrotation Xrotation Yrotation
								JOINT RightHandIndex1
								{
									OFFSET	 0.000000	 0.000000	 0.069977
									CHANNELS 3 Zrotation Xrotation Yrotation
									JOINT RightHandIndex2
									{
										OFFSET	 0.000000	 0.000000	 0.052305
										CHANNELS 3 Zrotation Xrotation Yrotation
										JOINT RightHandIndex3
										{
											OFFSET	 0.009002	-0.000782	 0.042196
											CHANNELS 3 Zrotation Xrotation Yrotation
											End Site
											{
												OFFSET	 0.009002	-0.000782	 0.042196
											}
										}
									}
								}
							}
						}
					}
				}
			}
		}
	}
}
MOTION
Frames:    7
Frame Time: 0.03333334
-0.704554	-1.635536	 1.270863	-177.115700	 7.123651	-1.724028	-6.653342	-11.666690	 177.446400	-0.687198	-25.327740	 0.541199	-33.584670	 65.303730	 24.382810	-2.385833	 28.452760	 0.000004	-1.250800	-18.720500	-176.913700	-4.394416	-25.041920	 2.763581	 19.018130	 79.418790	-10.201160	 2.384659	 28.388700	-0.000001	-4.826520	 5.484935	 2.488337	-5.727391	-7.530710	-19.793760	-0.677023	-6.729868	 21.078510	-91.776240	 78.527400	-179.999900	-25.171920	 16.764590	 21.271880	-13.490360	-9.696892	-80.850260	 8.356874	-5.557699	-4.450508	-4.131196	 21.524690	 0.986298	-5.167839	 0.733520	 3.519257	-1.378229	 35.397820	-2.634230	 1.629736	 7.255082	 0.271573	-16.539530	-8.543902	-5.341027	 89.782080	 78.203900	-180.000000	 3.852971	 25.748080	-17.540700	 6.619523	-19.183460	 71.705810	-5.996396	 32.864250	 18.532610	 5.715225	 19.176060	-3.692089	 5.027514	 0.245388	-9.378011	-2.350882	 35.473990	 5.254307
-0.702515	-1.632023	 1.270382	-177.025800	 7.447497	-1.937726	-6.699589	-11.923790	 177.254100	-0.698931	-26.361410	 0.556526	-35.123420	 65.550510	 26.150620	-2.385833	 28.452760	 0.000004	-0.576070	-19.919620	-176.393100	-4.379015	-26.055070	 2.874422	 20.963990	 80.280200	-12.084150	 2.384659	 28.388700	-0.000001	-5.622016	 5.155138	 2.510396	-6.506734	-6.448544	-20.395590	-0.378595	-7.296906	 21.470500	-91.776180	 78.527400	-180.000000	-24.660250	 19.617480	 22.599780	-13.996280	-9.638672	-83.766090	 8.145936	-5.690873	-4.392585	-4.131196	 21.524690	 0.986298	-5.167839	 0.733520	 3.519257	-1.378229	 35.397820	-2.634230	 1.616372	 7.478932	 0.371140	-16.496830	-8.794869	-5.414177	 89.782140	 78.203890	 180.000000	 2.468667	 29.008510	-17.590200	 7.264934	-19.563260	 73.807090	-7.044352	 31.584970	 19.076230	 5.715225	 19.176060	-3.692089	 5.027514	 0.245388	-9.378011	-2.350882	 35.473990	 5.254307
-0.693869	-1.616416	 1.268639	-176.810500	 8.944382	-2.518545	-7.238413	-12.543500	 176.096600	-0.529463	-29.826500	 0.707705	-42.475830	 66.256710	 34.143950	-2.385833	 28.452760	 0.000004	 2.225597	-24.618070	-174.199200	-4.518112	-29.397660	 3.142669	 33.929890	 82.622170	-24.811300	 2.384659	 28.388700	-0.000001	-8.862069	 3.180296	 1.846915	-9.683727	-0.756689	-22.039740	 1.082600	-10.156660	 22.836320	-91.776210	 78.527420	-180.000000	-18.895930	 30.883260	 22.137400	-14.948370	-9.245795	-89.412820	 7.452628	-6.151758	-4.190518	-4.131196	 21.524690	 0.986298	-5.167839	 0.733520	 3.519257	-1.378229	 35.397820	-2.634230	 1.551071	 8.117744	 0.736525	-16.343700	-9.443482	-5.582561	 89.782090	 78.203900	-180.000000	-5.192914	 42.363990	-13.370730	 7.859193	-20.240590	 75.928770	-14.975530	 23.241470	 22.983260	 5.715225	 19.176060	-3.692089	 5.027514	 0.245388	-9.378011	-2.350882	 35.473990	 5.254307
-0.671593	-1.573410	 1.266246	-177.061800	 13.253380	-2.440795	-10.514630	-11.648300	 172.276700	 1.621824	-33.008160	 1.948712	-62.284870	 65.457860	 52.819310	-2.385833	 28.452760	 0.000004	 8.559150	-33.760720	-169.148000	-6.318424	-32.785780	 2.484838	 66.450950	 80.659290	-56.566050	 2.384659	 28.388700	-0.000001	-15.348050	-3.916544	-4.113082	-16.909700	 14.501650	-18.135280	 4.043329	-17.511480	 22.756200	-91.776210	 78.527420	-180.000000	 2.189229	 40.265380	-11.399400	-11.362880	-7.600266	-64.091610	 6.740106	-6.586403	-3.936976	-4.131196	 21.524690	 0.986298	-5.167839	 0.733520	 3.519257	-1.378229	 35.397820	-2.634230	 1.372775	 7.941642	 1.327314	-16.087010	-8.689491	-5.225048	 89.782030	 78.299710	-179.972600	-28.884950	 60.789200	 22.487680	-3.267569	-12.962470	 37.918440	-35.600360	-13.909070	 34.139030	 5.715225	 19.176060	-3.692089	 5.027514	 0.245388	-9.378011	-2.350882	 35.473990	 5.254307
-0.641181	-1.521841	 1.265701	-177.029800	 15.259310	-2.259495	-14.446030	-7.740143	 170.304500	 4.188065	-31.518860	 3.218922	-69.689350	 61.965830	 58.404800	-2.385833	 28.452760	 0.000004	 9.998895	-37.354530	-167.392300	-6.693848	-32.951360	 2.290908	 53.392520	 76.432330	-43.826480	 2.384659	 28.388700	-0.000001	-18.463930	-7.008060	-7.915480	-20.795210	 19.412640	-14.064300	 4.892509	-20.016400	 21.966500	-91.776150	 78.527400	 180.000000	 3.729650	 37.502160	-33.337310	-8.554686	-3.605709	-29.009910	 5.942877	-7.025154	-3.675598	-4.131196	 21.524690	 0.986298	-5.167839	 0.733520	 3.519257	-1.378229	 35.397820	-2.634230	 1.647533	 8.179952	 1.185639	-16.001790	-9.254362	-5.412122	 89.782010	 78.318110	-179.967500	-34.444910	 62.905690	 44.594180	-7.920012	-0.171134	 0.538422	-37.303640	-38.129110	 44.329140	 5.715225	 19.176060	-3.692089	 5.027514	 0.245388	-9.378011	-2.350882	 35.473990	 5.254307
-0.609372	-1.474921	 1.266016	-177.024400	 14.137800	-2.007820	-16.845950	-3.737952	 170.116300	 4.883666	-30.610180	 3.493027	-66.198910	 59.073700	 55.514980	-2.385833	 28.452760	 0.000004	 7.892134	-36.142280	-169.725900	-6.309684	-32.949520	 2.500620	 33.524200	 69.535430	-25.797230	 2.384659	 28.388700	-0.000001	-18.089410	-6.068841	-7.012391	-19.920900	 18.068690	-14.964190	 4.755949	-19.279070	 21.997990	-91.776240	 78.527380	-180.000000	 4.673310	 39.176010	-25.375530	-9.741825	-4.742153	-41.787690	 5.710558	-7.148904	-3.609314	-4.131196	 21.524690	 0.986298	-5.167839	 0.733520	 3.519257	-1.378229	 35.397820	-2.634230	 1.880110	 8.302624	 0.807469	-15.998980	-9.471493	-5.202447	 89.781970	 78.313030	-179.968900	-30.759200	 61.954910	 40.550230	-8.605888	-0.181918	 0.577240	-36.652690	-35.823960	 44.225270	 5.715225	 19.176060	-3.692089	 5.027514	 0.245388	-9.378011	-2.350882	 35.473990	 5.254307
-0.571874	-1.422469	 1.266292	-176.793000	 12.955470	-0.524532	-18.398320	-3.238163	 167.830500	 2.304797	-35.802450	 2.493281	-54.054380	 54.389680	 49.697300	-2.385833	 28.452760	 0.000004	 5.328461	-35.067170	-174.149600	-7.242623	-34.979400	 2.098812	 30.927750	 68.914400	-23.123180	 2.384659	 28.388700	-0.000001	-18.685890	-4.637042	-8.583301	-19.274060	 16.689380	-14.504470	 4.584346	-18.772150	 21.456280	-91.776100	 78.527380	 179.999900	 5.752147	 41.699260	-20.257150	-9.967677	-5.340813	-46.462430	 5.565778	-7.471412	-3.572077	-4.131196	 21.524690	 0.986298	-5.167839	 0.733520	 3.519257	-1.378229	 35.397820	-2.634230	 2.343582	 8.506958	 0.079093	-15.958050	-9.947060	-4.480283	 89.781980	 78.311520	-179.969700	-27.863720	 61.614850	 37.497230	-9.144968	-0.190282	 0.617385	-36.451610	-33.407070	 43.535350	 5.715225	 19.176060	-3.692089	 5.027514	 0.245388	-9.378011	-2.350882	 35.473990	 5.254307
